# xmcd
#
# Track frame offsets: 
#        150
#        14135
#        25802
#        39895
#        54695
#        72145
#        79957
#        94445
#        110462
#        125390
#        148387
#        162622
#        171802
#        184867
#
# Disc length: 2704 seconds
#
# Revision: 0
# Processed by: cddbd v1.5.2PL0 Copyright (c) Steve Scherf et al.
# Submitted via: ExactAudioCopy v1.3
#
DISCID=cb0a8e0e
DTITLE=Sauce Boss - Florida Blues
DYEAR=2006
DGENRE=Blues
TTITLE0=Let the Big Dog Eat
TTITLE1=I'm Cookin'
TTITLE2=Alligator
TTITLE3=Going Back to Florida
TTITLE4=Ten Foot Pole
TTITLE5=Postcard with the Blues
TTITLE6=Your Maytag Done Broke Down
TTITLE7=Cypress Grove Blues
TTITLE8=Great Big Fanny
TTITLE9=Open Up
TTITLE10=Little Miss Heartbreak
TTITLE11=I Don't Want No Whiskey
TTITLE12=She's Mine
TTITLE13=Smugglers Cove
EXTD=
EXTT0=
EXTT1=
EXTT2=
EXTT3=
EXTT4=
EXTT5=
EXTT6=
EXTT7=
EXTT8=
EXTT9=
EXTT10=
EXTT11=
EXTT12=
EXTT13=
PLAYORDER=
